<svg width="146" height="132" viewBox="0 0 146 132" fill="none" xmlns="http://www.w3.org/2000/svg">
<path d="M65.3975 0.5625C63.5992 0.5625 61.8008 0.977501 60.0717 1.6L9.16499 22.6958C5.7811 24.0816 3.08601 26.7544 1.67225 30.1266C0.258491 33.4989 0.241791 37.2946 1.62582 40.6792L35.9325 123.333C36.9458 125.84 38.6717 127.995 40.8967 129.532C43.1217 131.069 45.7483 131.919 48.4517 131.979C50.25 131.979 52.1175 131.772 53.9158 130.942L104.892 109.846C107.352 108.802 109.461 107.074 110.969 104.867C112.477 102.66 113.32 100.067 113.399 97.3958C113.468 95.6667 113.122 93.6608 112.5 91.8625L77.9167 9.20833C76.9423 6.67479 75.2261 4.49421 72.9925 2.95168C70.7589 1.40916 68.1119 0.576472 65.3975 0.5625ZM89.4675 0.5625L113.33 58.3167V14.3958C113.33 10.727 111.873 7.20844 109.278 4.61419C106.684 2.01994 103.165 0.5625 99.4967 0.5625M127.232 11.2142V73.6717L144.04 33.14C144.729 31.4645 145.081 29.6695 145.074 27.8579C145.068 26.0463 144.705 24.2538 144.004 22.583C143.304 20.9123 142.28 19.3963 140.993 18.1219C139.705 16.8475 138.179 15.8398 136.501 15.1567M65.3975 14.1883L99.8425 97.3267L48.7283 118.492L14.2833 35.4225" fill="black"/>
</svg>
