<svg width="149" height="101" viewBox="0 0 149 101" fill="none" xmlns="http://www.w3.org/2000/svg">
<path d="M30.2943 51.1946L38.5764 28.6271H38.9451L47.2273 51.1946H30.2943ZM78.1875 91.7276C84.1662 88.3941 90.1965 85.985 96.2784 84.5001C102.36 83.0153 108.622 82.2778 115.062 82.2876C119.488 82.2876 123.465 82.5605 126.995 83.1063C130.525 83.652 133.64 84.3797 136.339 85.2893C137.47 85.7613 138.51 85.69 139.459 85.0754C140.408 84.4608 140.88 83.4922 140.875 82.1696V15.684C140.875 14.8334 140.639 14.0763 140.167 13.4125C139.695 12.7537 138.891 12.1883 137.755 11.7163C133.699 10.2757 130.009 9.29234 126.686 8.76626C123.362 8.24018 119.488 7.97222 115.062 7.96238C108.622 7.96238 102.198 8.9113 95.7916 10.8091C89.3803 12.7119 83.5123 15.5636 78.1875 19.3641V91.7276ZM28.185 56.6005H49.3439L52.8396 66.2323C53.0855 66.778 53.4222 67.1959 53.85 67.486C54.2777 67.7761 54.7793 67.9211 55.3545 67.9211C56.328 67.9211 57.0729 67.5327 57.5891 66.7559C58.1054 65.9791 58.2111 65.1186 57.9062 64.1746L43.0751 24.77C42.8293 24.1259 42.4138 23.6048 41.8288 23.2065C41.2437 22.8083 40.6168 22.6091 39.9481 22.6091H37.566C36.8973 22.6091 36.2729 22.8058 35.6927 23.1991C35.1126 23.5925 34.6971 24.1161 34.4464 24.77L19.6153 64.3074C19.3104 65.158 19.4161 65.9692 19.9324 66.7411C20.4486 67.5131 21.1935 67.9039 22.167 67.9138C22.7422 67.9138 23.2487 67.7663 23.6863 67.4713C24.1288 67.1861 24.4729 66.7559 24.7188 66.1806L28.185 56.6005ZM74.5 100.113C73.3446 100.113 72.2826 99.968 71.314 99.6779C70.3454 99.3878 69.4211 99.0191 68.541 98.5716C63.1818 95.6462 57.6014 93.4288 51.7997 91.9194C45.9981 90.41 40.044 89.6602 33.9375 89.67C30.1025 89.67 26.3314 89.9896 22.6243 90.6288C18.922 91.2728 15.3181 92.3053 11.8125 93.7263C9.13783 94.7932 6.62542 94.4711 4.27525 92.7601C1.92508 91.0491 0.75 88.6818 0.75 85.658V14.3786C0.75 12.5545 1.22937 10.8608 2.18812 9.29726C3.14687 7.73376 4.49158 6.64717 6.22225 6.03751C10.5833 4.15442 15.0968 2.77776 19.7628 1.90751C24.4287 1.03726 29.1536 0.599674 33.9375 0.594757C41.165 0.594757 48.2106 1.63463 55.0743 3.71438C61.9478 5.79413 68.423 8.81788 74.5 12.7856C80.5819 8.81788 87.0572 5.79413 93.9257 3.71438C100.794 1.63463 107.84 0.594757 115.062 0.594757C119.846 0.594757 124.571 1.03234 129.237 1.90751C133.908 2.77776 138.422 4.15442 142.778 6.03751C144.508 6.65209 145.853 7.73868 146.812 9.29726C147.771 10.8558 148.25 12.5496 148.25 14.3786V85.658C148.25 88.6768 146.981 90.995 144.444 92.6126C141.903 94.2253 139.198 94.4982 136.332 93.4313C132.925 92.1038 129.439 91.145 125.874 90.555C122.315 89.9601 118.711 89.6626 115.062 89.6626C108.966 89.6626 103.014 90.4149 97.2076 91.9194C91.401 93.4239 85.8182 95.6388 80.459 98.5643C79.574 99.0215 78.6497 99.3927 77.686 99.6779C76.7174 99.968 75.6554 100.113 74.5 100.113ZM88.4019 29.9915C88.4019 29.4507 88.5887 28.9049 88.9624 28.3543C89.336 27.8036 89.7785 27.3906 90.2899 27.1153C94.0413 25.4141 98.0066 24.1112 102.186 23.2065C106.365 22.3117 110.657 21.8643 115.062 21.8643C117.422 21.8643 119.66 21.9946 121.774 22.2551C123.888 22.5157 126.066 22.8918 128.308 23.3835C128.942 23.531 129.493 23.8629 129.96 24.3791C130.432 24.8905 130.668 25.5223 130.668 26.2745C130.668 27.5135 130.299 28.4133 129.562 28.9738C128.824 29.5343 127.836 29.6621 126.597 29.3573C124.778 28.9885 122.917 28.7353 121.014 28.5976C119.106 28.46 117.123 28.3911 115.062 28.3911C111.109 28.3911 107.243 28.7697 103.462 29.5269C99.6758 30.2841 96.0866 31.3411 92.6941 32.6981C91.4305 33.1849 90.398 33.1726 89.5966 32.6613C88.7952 32.1499 88.397 31.26 88.4019 29.9915ZM88.4019 69.9861C88.4019 69.4453 88.5887 68.8774 88.9624 68.2825C89.336 67.6778 89.7785 67.2402 90.2899 66.9698C93.8545 65.2686 97.8197 63.9903 102.186 63.1348C106.552 62.2842 110.844 61.8589 115.062 61.8589C117.422 61.8589 119.66 61.9892 121.774 62.2498C123.888 62.5103 126.066 62.8865 128.308 63.3781C128.942 63.5256 129.493 63.8575 129.96 64.3738C130.432 64.8851 130.668 65.5169 130.668 66.2691C130.668 67.5081 130.299 68.4079 129.562 68.9684C128.824 69.5289 127.836 69.6567 126.597 69.3519C124.778 68.9831 122.917 68.7299 121.014 68.5923C119.106 68.4546 117.123 68.3858 115.062 68.3858C111.208 68.3858 107.412 68.7791 103.676 69.5658C99.9388 70.3573 96.3742 71.4808 92.9817 72.9361C91.7132 73.5163 90.6316 73.5089 89.7367 72.914C88.8419 72.3191 88.397 71.3431 88.4019 69.9861ZM88.4019 50.1326C88.4019 49.5918 88.5887 49.0461 88.9624 48.4954C89.336 47.9447 89.7785 47.5317 90.2899 47.2564C94.0413 45.5503 98.0066 44.2474 102.186 43.3476C106.365 42.4528 110.657 42.0054 115.062 42.0054C117.422 42.0054 119.66 42.1357 121.774 42.3963C123.888 42.6568 126.066 43.033 128.308 43.5246C128.942 43.6721 129.493 44.0016 129.96 44.5129C130.432 45.0242 130.668 45.6585 130.668 46.4156C130.668 47.6546 130.299 48.5544 129.562 49.1149C128.824 49.6754 127.836 49.8008 126.597 49.491C124.778 49.1223 122.917 48.8715 121.014 48.7388C119.106 48.6011 117.123 48.5323 115.062 48.5323C111.109 48.5323 107.243 48.9108 103.462 49.668C99.6758 50.4203 96.0866 51.4773 92.6941 52.8393C91.4305 53.3211 90.398 53.3088 89.5966 52.8024C88.8001 52.2861 88.4019 51.3962 88.4019 50.1326Z" fill="black"/>
</svg>
